PathFileType	4	(x/y/z)	TRC_MarkerData\Passive\Passive_Pref0005.trc
DataRate	CameraRate	NumFrames	NumMarkers	Units	OrigDataRate	OrigDataStartFrame	OrigNumFrames
240	240	6	50	mm	240	191	304
Frame#	Time	R_AC			L_AC			HEAD			STERN			C7			L_IC			R_IC			L_ASIS			R_ASIS			L_GT			R_GT			L_PSIS			R_PSIS			SACRAL			L_LAT_KNEE			L_MED_KNEE			R_LAT_KNEE			R_MED_KNEE			L_LAT_ANK			L_MED_ANK			R_LAT_ANK			R_MED_ANK			L_THIGH_PROX_POST			L_THIGH_PROX_ANT			L_THIGH_DIST_ANT			L_THIGH_DIST_POST			R_THIGH_PROX_POST			R_THIGH_PROX_ANT			R_THIGH_DIST_ANT			R_THIGH_DIST_POST			L_SHANK_PROX_POST			L_SHANK_PROX_ANT			L_SHANK_DIST_ANT			L_SHANK_DIST_POST			R_SHANK_PROX_POST			R_SHANK_PROX_ANT			R_SHANK_DIST_ANT			R_SHANK_DIST_POST			L_HEEL_LAT			L_HEEL_SUP			L_HEEL_MED			R_HEEL_LAT			R_HEEL_SUP			R_HEEL_MED			L_1ST_MET			L_5TH_MET			L_TOE			R_1ST_MET			R_5TH_MET			R_TOE			
		X1	Y1	Z1	X2	Y2	Z2	X3	Y3	Z3	X4	Y4	Z4	X5	Y5	Z5	X6	Y6	Z6	X7	Y7	Z7	X8	Y8	Z8	X9	Y9	Z9	X10	Y10	Z10	X11	Y11	Z11	X12	Y12	Z12	X13	Y13	Z13	X14	Y14	Z14	X15	Y15	Z15	X16	Y16	Z16	X17	Y17	Z17	X18	Y18	Z18	X19	Y19	Z19	X20	Y20	Z20	X21	Y21	Z21	X22	Y22	Z22	X23	Y23	Z23	X24	Y24	Z24	X25	Y25	Z25	X26	Y26	Z26	X27	Y27	Z27	X28	Y28	Z28	X29	Y29	Z29	X30	Y30	Z30	X31	Y31	Z31	X32	Y32	Z32	X33	Y33	Z33	X34	Y34	Z34	X35	Y35	Z35	X36	Y36	Z36	X37	Y37	Z37	X38	Y38	Z38	X39	Y39	Z39	X40	Y40	Z40	X41	Y41	Z41	X42	Y42	Z42	X43	Y43	Z43	X44	Y44	Z44	X45	Y45	Z45	X46	Y46	Z46	X47	Y47	Z47	X48	Y48	Z48	X49	Y49	Z49	X50	Y50	Z50	

191	0.79428	170.59	1494.9	485.88	156.03	1528.9	97.616	269.07	1812.7	316.76	263.76	1473	288.76	119.8	1555.7	297.62	159.47	1062.3	118.42	177.44	1085.1	461.05	222.29	995.51	146.58	247.49	1019.9	415.26	126.64	916.93	105.47	180.67	946.06	477.41	26.173	1022.3	252.5	40.011	1026.1	361.07	18.608	998.54	309.86	84.834	509.08	122.78	110.96	500.22	255.93	331.8	547.53	425.71	338.65	554.93	297.82	-298.66	269.79	159.23	-294.59	272.92	237.75	290.82	94.776	368.12	322.41	113.66	269.6	88.367	772.88	120.28	152.6	760.49	111.69	144.55	685.34	116.89	80.57	698.22	125.83	225.07	768.43	465.81	290.37	791.63	467.38	307.38	721.51	455.98	243.71	697.33	448.44	46.713	470.8	132.91	86.178	447.96	142.07	47.928	415.74	150.81	3.125	441.11	140.24	261.72	388.01	417.9	330.96	396.87	429.04	337.97	324.25	415.46	270.06	312.71	404.9	-395.69	268.95	165.62	-381.98	292.64	201.13	-399.58	266.56	233.16	230.04	38.893	336.02	226.36	64.163	299.96	246.18	37.362	270.12	-245.23	100.6	252.63	-263.8	109.41	147.59	-204	68.321	227.2	475.97	51.733	295.08	431.06	39.819	400.29	513.59	63.714	350.78
192	0.79846	175.87	1496	486.2	161.02	1529.7	97.84	274.62	1813.6	317.17	268.99	1474	289.05	125.04	1556.6	297.91	164.94	1063.1	119.09	183	1086.1	461.7	228.12	996.75	147.4	253.03	1020.7	416.07	132.98	917.73	106.02	186.04	946.66	477.99	31.724	1022.8	253.08	45.528	1026.9	361.7	24.16	999.25	310.48	95.489	509.66	122.35	121.77	500.68	255.47	334.73	547.32	425.89	341.79	554.76	297.94	-289.43	272.67	159.44	-285.2	275.79	237.98	291.1	94.965	367.9	322.7	113.55	269.37	96.449	773.13	120.46	160.85	761.49	111.86	153.58	686.19	116.85	89.375	698.3	125.89	229.57	768.79	466.11	295.11	791.53	467.78	311.49	721.36	456.3	247.79	697.57	448.74	57.087	471.54	132.61	96.488	448.52	141.65	58.059	416.51	150.46	13.394	442.15	139.96	263.61	388.25	417.76	332.88	396.69	429.06	339.48	324.02	415.43	271.55	312.92	404.72	-386.46	272.41	165.97	-372.59	296.06	201.4	-390.25	270.04	233.54	230.17	39.111	335.99	226.53	64.334	299.91	246.3	37.465	270.08	-236.84	103.16	252.77	-255.52	112.07	147.76	-195.85	70.639	227.29	476.1	51.082	294.9	431.2	39.672	400.26	513.72	63.075	350.56
193	0.80264	181.13	1497.1	486.51	165.97	1530.4	98.054	280.17	1814.5	317.55	274.19	1475.1	289.33	130.26	1557.6	298.19	170.38	1063.9	119.75	188.54	1087.1	462.35	233.91	998.05	148.19	258.54	1021.5	416.86	139.28	918.6	106.54	191.36	947.29	478.54	37.249	1023.4	253.66	51.015	1027.8	362.3	29.682	1000	311.07	106.16	510.35	121.92	132.58	501.27	255.02	337.54	547.13	426.08	344.81	554.59	298.08	-280	275.4	159.63	-275.63	278.51	238.17	291.37	95.154	367.71	322.96	113.46	269.16	104.51	773.48	120.63	169.07	762.59	112	162.59	687.15	116.79	98.174	698.49	125.93	234	769.17	466.41	299.75	791.46	468.16	315.51	721.23	456.61	251.78	697.84	449.05	67.517	472.38	132.29	106.85	449.2	141.23	68.267	417.38	150.11	23.725	443.25	139.68	265.39	388.48	417.64	334.69	396.52	429.1	340.9	323.82	415.42	272.96	313.14	404.56	-377.03	275.63	166.28	-363.02	299.24	201.64	-380.72	273.28	233.88	230.3	39.33	335.97	226.69	64.509	299.86	246.41	37.575	270.06	-228.15	105.63	252.89	-246.94	114.61	147.91	-187.36	72.883	227.35	476.22	50.482	294.74	431.34	39.537	400.25	513.84	62.476	350.37
194	0.80682	186.37	1498.3	486.8	170.86	1531.2	98.26	285.71	1815.5	317.91	279.36	1476.2	289.6	135.45	1558.6	298.47	175.78	1064.8	120.41	194.06	1088.1	462.97	239.66	999.41	148.94	264.02	1022.3	417.64	145.53	919.55	107.03	196.64	947.95	479.08	42.753	1024.1	254.23	56.475	1028.7	362.88	35.178	1000.8	311.65	116.84	511.15	121.49	143.38	501.97	254.57	340.24	546.95	426.28	347.71	554.42	298.25	-270.39	277.95	159.78	-265.88	281.06	238.32	291.63	95.342	367.53	323.2	113.39	268.98	112.56	773.91	120.78	177.25	763.76	112.12	171.57	688.21	116.72	106.97	698.8	125.94	238.33	769.58	466.7	304.28	791.41	468.53	319.46	721.13	456.92	255.7	698.13	449.37	78.003	473.32	131.95	117.26	449.98	140.8	78.545	418.34	149.75	34.109	444.4	139.39	267.08	388.71	417.55	336.39	396.37	429.17	342.23	323.63	415.44	274.28	313.36	404.43	-367.41	278.6	166.55	-353.28	302.19	201.85	-371.01	276.27	234.18	230.42	39.547	335.95	226.85	64.69	299.82	246.52	37.695	270.04	-219.16	107.97	252.99	-238.05	117.02	148.03	-178.55	75.039	227.39	476.33	49.933	294.61	431.47	39.411	400.24	513.96	61.914	350.21
195	0.811	191.59	1499.5	487.1	175.72	1531.9	98.461	291.25	1816.5	318.23	284.52	1477.4	289.86	140.62	1559.7	298.73	181.16	1065.8	121.05	199.57	1089.2	463.59	245.37	1000.8	149.66	269.48	1023.1	418.38	151.74	920.58	107.5	201.87	948.64	479.6	48.239	1024.8	254.78	61.909	1029.6	363.44	40.65	1001.7	312.2	127.52	512.05	121.07	154.17	502.79	254.12	342.82	546.79	426.49	350.5	554.26	298.44	-260.6	280.33	159.89	-255.97	283.43	238.45	291.88	95.527	367.37	323.43	113.34	268.82	120.58	774.41	120.9	185.39	765.01	112.21	180.53	689.36	116.63	115.78	699.22	125.92	242.58	770.03	467	308.71	791.38	468.89	323.32	721.05	457.24	259.53	698.45	449.7	88.542	474.35	131.58	127.71	450.87	140.38	88.887	419.36	149.39	44.54	445.6	139.09	268.66	388.94	417.48	338	396.24	429.27	343.49	323.46	415.5	275.53	313.58	404.32	-357.61	281.33	166.79	-343.37	304.89	202.03	-361.13	279.02	234.45	230.54	39.765	335.94	227	64.876	299.78	246.63	37.826	270.03	-209.87	110.17	253.05	-228.86	119.29	148.11	-169.42	77.09	227.4	476.45	49.433	294.5	431.59	39.292	400.25	514.08	61.385	350.09
196	0.81518	196.78	1500.8	487.38	180.56	1532.7	98.659	296.78	1817.5	318.53	289.65	1478.5	290.11	145.76	1560.7	298.99	186.52	1066.8	121.67	205.07	1090.2	464.18	251.03	1002.3	150.35	274.91	1024	419.11	157.91	921.66	107.94	207.06	949.35	480.09	53.709	1025.6	255.32	67.319	1030.6	363.97	46.1	1002.6	312.72	138.19	513.05	120.65	164.94	503.72	253.69	345.29	546.65	426.73	353.17	554.1	298.67	-250.64	282.52	159.98	-245.89	285.61	238.54	292.11	95.71	367.24	323.64	113.32	268.7	128.59	774.97	121.01	193.51	766.32	112.28	189.46	690.6	116.52	124.6	699.74	125.87	246.74	770.5	467.29	313.02	791.38	469.25	327.1	720.99	457.56	263.27	698.81	450.05	99.129	475.46	131.2	138.2	451.85	139.97	99.288	420.46	149.03	55.012	446.83	138.79	270.15	389.18	417.46	339.5	396.13	429.4	344.66	323.32	415.59	276.7	313.81	404.24	-347.65	283.81	167	-333.32	307.34	202.18	-351.08	281.5	234.68	230.65	39.982	335.93	227.14	65.069	299.76	246.73	37.968	270.03	-200.3	112.22	253.07	-219.39	121.39	148.16	-159.98	79.024	227.37	476.56	48.979	294.42	431.7	39.177	400.28	514.19	60.886	349.99
